HIERARCHY
ROOT hip
{
  OFFSET 0 0 0
  CHANNELS 6 Xposition Yposition Zposition Zrotation Yrotation Xrotation
  JOINT abdomen
  {
    OFFSET 0 20.6881 -0.73152
    CHANNELS 3 Zrotation Xrotation Yrotation
    JOINT chest
    {
      OFFSET 0 11.7043 -0.48768
      CHANNELS 3 Zrotation Xrotation Yrotation
      JOINT neck
      {
        OFFSET 0 22.1894 -2.19456
        CHANNELS 3 Zrotation Xrotation Yrotation
        JOINT head
        {
          OFFSET -0.24384 7.07133 1.2192
          CHANNELS 3 Zrotation Xrotation Yrotation
          JOINT leftEye
          {
            OFFSET 4.14528 8.04674 8.04672
            CHANNELS 3 Zrotation Xrotation Yrotation
            End Site
            {
              OFFSET 1 0 0
            }
          }
          JOINT rightEye
          {
            OFFSET -3.6576 8.04674 8.04672
            CHANNELS 3 Zrotation Xrotation Yrotation
            End Site
            {
              OFFSET 1 0 0
            }
          }
        }
      }
      JOINT rCollar
      {
        OFFSET -2.68224 19.2634 -4.8768
        CHANNELS 3 Zrotation Xrotation Yrotation
        JOINT rShldr
        {
          OFFSET -8.77824 -1.95073 1.46304
          CHANNELS 3 Zrotation Xrotation Yrotation
          JOINT rForeArm
          {
            OFFSET -28.1742 -1.7115 0.48768
            CHANNELS 3 Zrotation Xrotation Yrotation
            JOINT rHand
            {
              OFFSET -22.5879 0.773209 7.07136
              CHANNELS 3 Zrotation Xrotation Yrotation
              JOINT rThumb1
              {
                OFFSET -1.2192 -0.487915 3.41376
                CHANNELS 3 Zrotation Xrotation Yrotation
                JOINT rThumb2
                {
                  OFFSET -3.37035 -0.52449 3.41376
                  CHANNELS 3 Zrotation Xrotation Yrotation
                  End Site
                  {
                    OFFSET -1.78271 -1.18214 1.43049
                  }
                }
              }
              JOINT rIndex1
              {
                OFFSET -7.75947 0.938293 5.60832
                CHANNELS 3 Zrotation Xrotation Yrotation
                JOINT rIndex2
                {
                  OFFSET -2.54057 -0.884171 1.56538
                  CHANNELS 3 Zrotation Xrotation Yrotation
                  End Site
                  {
                    OFFSET -1.62519 -0.234802 1.16502
                  }
                }
              }
              JOINT rMid1
              {
                OFFSET -8.24714 1.18213 3.41376
                CHANNELS 3 Zrotation Xrotation Yrotation
                JOINT rMid2
                {
                  OFFSET -3.10165 -0.590103 1.0647
                  CHANNELS 3 Zrotation Xrotation Yrotation
                  End Site
                  {
                    OFFSET -2.48547 -0.328903 0.83742
                  }
                }
              }
              JOINT rRing1
              {
                OFFSET -8.82822 0.546677 1.51678
                CHANNELS 3 Zrotation Xrotation Yrotation
                JOINT rRing2
                {
                  OFFSET -2.60934 -0.819778 -0.0198488
                  CHANNELS 3 Zrotation Xrotation Yrotation
                  End Site
                  {
                    OFFSET -2.33842 -0.294052 0.168128
                  }
                }
              }
              JOINT rPinky1
              {
                OFFSET -8.27202 -0.0477905 -0.4584
                CHANNELS 3 Zrotation Xrotation Yrotation
                JOINT rPinky2
                {
                  OFFSET -1.82734 -0.647385 -0.700984
                  CHANNELS 3 Zrotation Xrotation Yrotation
                  End Site
                  {
                    OFFSET -1.69225 -0.51767 -0.607171
                  }
                }
              }
            }
          }
        }
      }
      JOINT lCollar
      {
        OFFSET 2.68224 19.2634 -4.8768
        CHANNELS 3 Zrotation Xrotation Yrotation
        JOINT lShldr
        {
          OFFSET 8.77824 -1.95073 1.46304
          CHANNELS 3 Zrotation Xrotation Yrotation
          JOINT lForeArm
          {
            OFFSET 28.1742 -1.7115 0.48768
            CHANNELS 3 Zrotation Xrotation Yrotation
            JOINT lHand
            {
              OFFSET 22.5879 0.773209 7.07136
              CHANNELS 3 Zrotation Xrotation Yrotation
              JOINT lThumb1
              {
                OFFSET 1.2192 -0.487915 3.41376
                CHANNELS 3 Zrotation Xrotation Yrotation
                JOINT lThumb2
                {
                  OFFSET 3.37035 -0.52449 3.41376
                  CHANNELS 3 Zrotation Xrotation Yrotation
                  End Site
                  {
                    OFFSET 1.78271 -1.18214 1.43049
                  }
                }
              }
              JOINT lIndex1
              {
                OFFSET 7.75947 0.938293 5.60832
                CHANNELS 3 Zrotation Xrotation Yrotation
                JOINT lIndex2
                {
                  OFFSET 2.54057 -0.884171 1.56538
                  CHANNELS 3 Zrotation Xrotation Yrotation
                  End Site
                  {
                    OFFSET 1.62519 -0.234802 1.16502
                  }
                }
              }
              JOINT lMid1
              {
                OFFSET 8.24714 1.18213 3.41376
                CHANNELS 3 Zrotation Xrotation Yrotation
                JOINT lMid2
                {
                  OFFSET 3.10165 -0.590103 1.0647
                  CHANNELS 3 Zrotation Xrotation Yrotation
                  End Site
                  {
                    OFFSET 2.48547 -0.328903 0.83742
                  }
                }
              }
              JOINT lRing1
              {
                OFFSET 8.82822 0.546677 1.51678
                CHANNELS 3 Zrotation Xrotation Yrotation
                JOINT lRing2
                {
                  OFFSET 2.60934 -0.819778 -0.0198488
                  CHANNELS 3 Zrotation Xrotation Yrotation
                  End Site
                  {
                    OFFSET 2.33842 -0.294052 0.168128
                  }
                }
              }
              JOINT lPinky1
              {
                OFFSET 8.27202 -0.0477905 -0.4584
                CHANNELS 3 Zrotation Xrotation Yrotation
                JOINT lPinky2
                {
                  OFFSET 1.82734 -0.647385 -0.700984
                  CHANNELS 3 Zrotation Xrotation Yrotation
                  End Site
                  {
                    OFFSET 1.69225 -0.51767 -0.607171
                  }
                }
              }
            }
          }
        }
      }
    }
  }
  JOINT rButtock
  {
    OFFSET -8.77824 4.35084 1.2192
    CHANNELS 3 Zrotation Xrotation Yrotation
    JOINT rThigh
    {
      OFFSET 0 -1.70687 -2.19456
      CHANNELS 3 Zrotation Xrotation Yrotation
      JOINT rShin
      {
        OFFSET 0 -36.8199 0.73152
        CHANNELS 3 Zrotation Xrotation Yrotation
        JOINT rFoot
        {
          OFFSET 0.73152 -45.1104 -5.12064
          CHANNELS 3 Zrotation Xrotation Yrotation
          End Site
          {
            OFFSET -1.1221 -3.69964 12.103
          }
        }
      }
    }
  }
  JOINT lButtock
  {
    OFFSET 8.77824 4.35084 1.2192
    CHANNELS 3 Zrotation Xrotation Yrotation
    JOINT lThigh
    {
      OFFSET 0 -1.70687 -2.19456
      CHANNELS 3 Zrotation Xrotation Yrotation
      JOINT lShin
      {
        OFFSET 0 -36.8199 0.73152
        CHANNELS 3 Zrotation Xrotation Yrotation
        JOINT lFoot
        {
          OFFSET -0.73152 -45.1104 -5.12064
          CHANNELS 3 Zrotation Xrotation Yrotation
          End Site
          {
            OFFSET 1.1221 -3.69964 12.103
          }
        }
      }
    }
  }
}
MOTION
Frames:	5
Frame Time:	0.00833333
-6.23341 84.9487 33.3549 -4.8631 -3.9672 3.8331 2.38875 11.7038 2.39556 -1.19592 -7.8656 0.573391 1.35727 -3.5667 -1.44501 1.18196 -3.51582 -3.29474 -0.0 0.0 0.0 -0.0 0.0 0.0 1.01051e-13 4.78076e-14 -3.70935e-15 37.0869 28.3175 43.0077 -27.7408 -41.6122 86.8576 -1.43188 -31.868 -5.01235 2.30397e-10 4.09857e-10 5.07633e-11 3.99241e-10 7.09115e-10 9.18268e-11 2.30397e-10 4.09859e-10 5.07317e-11 7.73091 5.47488 0.417314 2.30396e-10 4.09858e-10 5.07535e-11 2.90554 0.965183 0.102902 2.30402e-10 4.09858e-10 5.07515e-11 10.2786 0.731801 0.0259123 2.30392e-10 4.09859e-10 5.07565e-11 2.22167 -0.733487 -0.20892 1.01077e-13 4.78083e-14 -3.82311e-15 -39.8915 31.4173 -56.0676 28.3409 -37.908 -80.2458 1.59167 -33.3586 5.30882 -1.8071e-11 1.41763e-10 1.6641e-10 -3.6147e-11 2.53086e-10 2.85723e-10 -1.80708e-11 1.41752e-10 1.66421e-10 -7.73091 5.47488 -0.417314 -1.80697e-11 1.41762e-10 1.66413e-10 -2.90554 0.965183 -0.102902 -1.80817e-11 1.41762e-10 1.66409e-10 -10.2786 0.731801 -0.0259123 -1.80682e-11 1.4176e-10 1.664e-10 -2.22167 -0.733487 0.20892 -2.03217e-16 0.0 -3.88251e-19 -1.58341 1.58507 -1.59886 0.0386944 -2.07992 0.00476578 -2.60674 -9.81997 -9.07341 2.03217e-16 0.0 3.88251e-19 6.59496 -2.87965 -6.1361 -0.0540391 5.28605 -0.239793 1.59299 -10.4974 20.3796
-6.22034 84.9301 33.3969 -4.8476 -4.0292 3.5454 2.38412 11.6474 2.40877 -1.22102 -7.88616 0.573404 1.3829 -3.52339 -1.44143 1.17764 -3.16817 -3.29849 -0.0 0.0 0.0 -0.0 0.0 0.0 6.39552e-14 -7.95139e-16 -7.50412e-15 37.1103 28.3209 43.0028 -27.7902 -41.4017 86.4722 -1.43637 -31.9117 -5.02088 1.81317e-10 4.32616e-10 -9.4806e-11 3.16965e-10 7.54431e-10 -1.59511e-10 1.81316e-10 4.32621e-10 -9.48378e-11 7.73091 5.47488 0.417314 1.81315e-10 4.32619e-10 -9.48155e-11 2.90554 0.965183 0.102902 1.81322e-10 4.32619e-10 -9.48179e-11 10.2786 0.731801 0.0259123 1.81312e-10 4.32619e-10 -9.48123e-11 2.22167 -0.733487 -0.20892 6.3967e-14 -7.9475e-16 -7.60351e-15 -39.9332 31.4301 -56.1284 28.3555 -37.7206 -79.9261 1.59616 -33.3989 5.31699 -1.25153e-10 2.98039e-10 1.23313e-10 -2.19854e-10 5.19019e-10 2.09136e-10 -1.25156e-10 2.9804e-10 1.23323e-10 -7.73091 5.47488 -0.417314 -1.25152e-10 2.98038e-10 1.23316e-10 -2.90554 0.965183 -0.102902 -1.25165e-10 2.98038e-10 1.23312e-10 -10.2786 0.731801 -0.0259123 -1.25152e-10 2.98035e-10 1.23304e-10 -2.22167 -0.733487 0.20892 -2.03217e-16 0.0 -3.88251e-19 -1.59108 1.83925 -1.569 0.0387799 -2.07993 0.00600742 -2.59903 -9.81161 -9.04368 2.03217e-16 0.0 3.88251e-19 6.58682 -2.63452 -6.14021 -0.0541843 5.33485 -0.240667 1.60461 -10.5735 20.4073
-6.22175 84.9112 33.4192 -4.8964 -4.0808 3.2959 2.34304 11.6033 2.41904 -1.21265 -7.89923 0.577235 1.41744 -3.52284 -1.42387 1.16046 -2.78222 -3.27945 -0.0 0.0 0.0 -0.0 0.0 0.0 4.05749e-14 -6.10036e-15 -3.30716e-14 37.0808 28.3252 43.0481 -27.8301 -41.2244 86.1495 -1.44428 -31.9882 -5.03585 4.81338e-11 2.33694e-10 -1.44237e-10 8.70441e-11 4.12547e-10 -2.48116e-10 4.81316e-11 2.33699e-10 -1.44267e-10 7.73091 5.47488 0.417314 4.81316e-11 2.33697e-10 -1.44244e-10 2.90554 0.965183 0.102902 4.81385e-11 2.33697e-10 -1.44246e-10 10.2786 0.731801 0.0259123 4.8129e-11 2.33697e-10 -1.4424e-10 2.22167 -0.733487 -0.20892 4.05637e-14 -6.09982e-15 -3.31776e-14 -40.0002 31.4422 -56.1713 28.3663 -37.5629 -79.6593 1.60031 -33.4361 5.32451 -7.077e-11 1.41734e-10 6.69358e-11 -1.24168e-10 2.47969e-10 1.14248e-10 -7.07766e-11 1.41743e-10 6.69429e-11 -7.73091 5.47488 -0.417314 -7.07691e-11 1.41734e-10 6.69375e-11 -2.90554 0.965183 -0.102902 -7.07794e-11 1.41734e-10 6.69342e-11 -10.2786 0.731801 -0.0259123 -7.07683e-11 1.41732e-10 6.69243e-11 -2.22167 -0.733487 0.20892 -2.03217e-16 0.0 -3.88251e-19 -1.61233 2.07365 -1.52469 0.0388283 -2.07995 0.00715037 -2.58587 -9.81373 -8.99232 2.03217e-16 0.0 3.88251e-19 6.57245 -2.39749 -6.09142 -0.0543075 5.37276 -0.241562 1.60693 -10.6211 20.4
-6.22373 84.899 33.4341 -4.9203 -4.1633 3.0748 2.273 11.5703 2.42856 -1.18264 -7.90781 0.583909 1.45946 -3.53927 -1.39578 1.13567 -2.39347 -3.2427 -0.0 0.0 0.0 -0.0 0.0 0.0 2.17911e-14 1.57035e-14 -7.34106e-14 37.0159 28.3298 43.1253 -27.8637 -41.0762 85.8753 -1.45393 -32.0809 -5.05405 -1.54339e-10 -1.30964e-10 -1.42813e-10 -2.63889e-10 -2.17768e-10 -2.5139e-10 -1.54343e-10 -1.3096e-10 -1.4284e-10 7.73091 5.47488 0.417314 -1.54341e-10 -1.3096e-10 -1.42816e-10 2.90554 0.965183 0.102902 -1.54335e-10 -1.30961e-10 -1.42816e-10 10.2786 0.731801 0.0259123 -1.54343e-10 -1.30962e-10 -1.42812e-10 2.22167 -0.733487 -0.20892 2.17503e-14 1.57045e-14 -7.35379e-14 -40.0754 31.4625 -56.2021 28.3754 -37.4335 -79.4368 1.60356 -33.4652 5.33042 9.19381e-11 -2.30072e-10 -4.15838e-12 1.59095e-10 -3.93495e-10 -2.82509e-12 9.19276e-11 -2.30056e-10 -4.155e-12 -7.73091 5.47488 -0.417314 9.19396e-11 -2.3007e-10 -4.15917e-12 -2.90554 0.965183 -0.102902 9.1933e-11 -2.30069e-10 -4.16181e-12 -10.2786 0.731801 -0.0259123 9.19411e-11 -2.3007e-10 -4.17348e-12 -2.22167 -0.733487 0.20892 -2.03217e-16 0.0 -3.88251e-19 -1.64517 2.29223 -1.4695 0.0388414 -2.07997 0.00820557 -2.56917 -9.82076 -8.92825 2.03217e-16 0.0 3.88251e-19 6.55107 -2.16761 -6.00987 -0.0544063 5.40212 -0.2424 1.60379 -10.6492 20.3728
-6.2025 84.8948 33.4548 -4.8397 -4.2535 2.8586 2.1968 11.5414 2.43786 -1.15191 -7.90682 0.590061 1.49734 -3.55959 -1.36842 1.11785 -2.03816 -3.20577 -0.0 0.0 0.0 -0.0 0.0 0.0 1.82115e-16 4.3968e-14 -1.11098e-13 36.9411 28.3468 43.2056 -27.8903 -40.9578 85.6554 -1.46318 -32.1692 -5.07143 -3.49052e-10 -4.97183e-10 -1.21981e-10 -6.01783e-10 -8.51742e-10 -2.20942e-10 -3.49058e-10 -4.9718e-10 -1.22004e-10 7.73091 5.47488 0.417314 -3.49055e-10 -4.9718e-10 -1.21981e-10 2.90554 0.965183 0.102902 -3.49049e-10 -4.97181e-10 -1.21979e-10 10.2786 0.731801 0.0259123 -3.49056e-10 -4.97182e-10 -1.21975e-10 2.22167 -0.733487 -0.20892 1.18391e-16 4.39692e-14 -1.11246e-13 -40.1488 31.4909 -56.2208 28.3828 -37.3251 -79.2493 1.6059 -33.4861 5.33465 2.49463e-10 -6.1627e-10 -9.54818e-11 4.33743e-10 -1.06064e-09 -1.54927e-10 2.49449e-10 -6.16249e-10 -9.54814e-11 -7.73091 5.47488 -0.417314 2.49465e-10 -6.16266e-10 -9.54847e-11 -2.90554 0.965183 -0.102902 2.49462e-10 -6.16265e-10 -9.54869e-11 -10.2786 0.731801 -0.0259123 2.49467e-10 -6.16264e-10 -9.55001e-11 -2.22167 -0.733487 0.20892 -2.03217e-16 0.0 -3.88251e-19 -1.67867 2.49453 -1.41037 0.0388197 -2.07999 0.00919164 -2.55289 -9.82378 -8.8689 2.03217e-16 0.0 3.88251e-19 6.52891 -1.95037 -5.91844 -0.0545184 5.42817 -0.243365 1.59761 -10.6671 20.3426
